<?xml version="1.0" standalone="no"?>
<!DOCTYPE svg PUBLIC "-//W3C//DTD SVG 20010904//EN"
 "http://www.w3.org/TR/2001/REC-SVG-20010904/DTD/svg10.dtd">
<svg version="1.0" xmlns="http://www.w3.org/2000/svg"
 width="128.000000pt" height="128.000000pt" viewBox="0 0 128.000000 128.000000"
 preserveAspectRatio="xMidYMid meet">

<g transform="translate(0.000000,128.000000) scale(0.100000,-0.100000)"
fill="#000000" stroke="none">
<path d="M418 1200 c-85 -15 -149 -41 -158 -64 -15 -34 -111 -378 -108 -382 2
-2 33 6 68 18 44 14 92 22 151 22 81 1 91 -1 159 -36 41 -21 74 -37 75 -35 1
1 28 92 59 202 l58 199 -21 18 c-57 46 -194 74 -283 58z"/>
<path d="M796 1062 c-2 -4 -30 -95 -60 -202 -63 -219 -64 -203 20 -240 105
-46 215 -49 338 -9 l66 22 21 71 c41 137 96 331 95 333 -1 1 -29 -6 -63 -17
-134 -42 -243 -35 -355 21 -31 16 -59 25 -62 21z"/>
<path d="M218 677 c-48 -12 -90 -26 -94 -30 -8 -8 -123 -401 -119 -405 2 -2
33 6 70 17 121 38 259 24 346 -33 21 -15 39 -24 39 -21 0 3 27 96 60 207 40
136 56 206 49 214 -5 6 -36 23 -69 38 -86 39 -171 43 -282 13z"/>
<path d="M645 548 c-16 -49 -105 -370 -105 -381 0 -18 126 -75 195 -88 56 -10
169 7 245 37 l37 15 52 182 c29 100 54 189 57 198 4 15 -2 15 -63 -2 -123 -34
-284 -20 -369 32 -37 22 -43 23 -49 7z"/>
</g>
</svg>
